<svg xmlns="http://www.w3.org/2000/svg" width="180" height="180" viewBox="0 0 180 180" version="1.1"><path d="M 40.200 44.200 C 38.473 45.927, 38.473 134.073, 40.200 135.800 C 41.766 137.366, 53.234 137.366, 54.800 135.800 C 56.527 134.073, 56.527 45.927, 54.800 44.200 C 54.129 43.529, 50.911 43, 47.500 43 C 44.089 43, 40.871 43.529, 40.200 44.200 M 125.200 44.200 C 123.473 45.927, 123.473 134.073, 125.200 135.800 C 126.766 137.366, 138.234 137.366, 139.800 135.800 C 141.527 134.073, 141.527 45.927, 139.800 44.200 C 139.129 43.529, 135.911 43, 132.500 43 C 129.089 43, 125.871 43.529, 125.200 44.200 M 147 88.500 L 147 119 151.066 119 C 159.405 119, 159 120.548, 159 88.665 C 159 68.014, 158.677 60.077, 157.800 59.200 C 157.140 58.540, 154.440 58, 151.800 58 L 147 58 147 88.500 M 22.750 62.080 C 21.149 63.013, 21 65.500, 21 91.350 C 21 111.989, 21.323 119.923, 22.200 120.800 C 22.860 121.460, 25.560 122, 28.200 122 L 33 122 33 91.500 L 33 61 28.750 61.030 C 26.413 61.047, 23.712 61.519, 22.750 62.080 M 76.250 74.748 C 83.813 74.917, 96.188 74.917, 103.750 74.748 C 111.313 74.578, 105.125 74.439, 90 74.439 C 74.875 74.439, 68.688 74.578, 76.250 74.748 M 166.750 74.662 C 167.438 74.940, 168.563 74.940, 169.250 74.662 C 169.938 74.385, 169.375 74.158, 168 74.158 C 166.625 74.158, 166.063 74.385, 166.750 74.662 M 62.682 80.651 C 62.307 81.026, 62 85.083, 62 89.667 L 62 98 90.039 98 L 118.078 98 117.789 89.250 L 117.500 80.500 90.432 80.234 C 75.545 80.088, 63.058 80.276, 62.682 80.651 M 165 89.500 L 165 98 167.929 98 C 172.435 98, 174 95.713, 174 89.129 C 174 82.547, 172.915 81, 168.300 81 L 165 81 165 89.500 M 7.571 83.571 C 5.665 85.478, 5.391 95.991, 7.200 97.800 C 7.860 98.460, 9.885 99, 11.700 99 L 15 99 15 90.500 L 15 82 12.071 82 C 10.461 82, 8.436 82.707, 7.571 83.571 M 10.750 105.662 C 11.438 105.940, 12.563 105.940, 13.250 105.662 C 13.938 105.385, 13.375 105.158, 12 105.158 C 10.625 105.158, 10.063 105.385, 10.750 105.662" stroke="none" fill="#71b1f8" fill-rule="evenodd"/><path d="M 36.400 40.400 C 33.361 43.439, 33 44.381, 33 49.280 L 33 54.760 26.851 55.204 C 21.475 55.593, 20.344 56.050, 17.851 58.840 C 15.293 61.704, 15 62.749, 15 69.016 L 15 76 11.016 76 C 8.038 76, 6.217 76.728, 3.805 78.883 C 0.846 81.527, 0.545 82.357, 0.175 88.901 C -0.455 100.052, 2.402 104.509, 10.610 105.181 L 14.500 105.500 15.057 113.500 C 15.363 117.900, 15.980 122.304, 16.428 123.287 C 17.696 126.069, 22.416 128, 27.950 128 L 33 128 33 132.100 C 33 135.429, 33.639 136.839, 36.400 139.600 C 39.637 142.837, 40.146 143, 46.996 143 C 54.956 143, 59.084 141.306, 60.915 137.288 C 61.545 135.903, 62 128.434, 62 119.453 L 62 104 90 104 L 118 104 118 119.453 C 118 128.709, 118.448 135.890, 119.118 137.359 C 121.049 141.598, 125.656 143.302, 133.925 142.834 C 140.661 142.454, 141.460 142.168, 144.117 139.195 C 146.535 136.489, 147 135.103, 147 130.604 L 147 125.240 153.149 124.796 C 158.525 124.407, 159.656 123.950, 162.149 121.160 C 164.707 118.296, 165 117.251, 165 110.984 L 165 104 168.923 104 C 173.136 104, 179 100.131, 179 97.352 C 179 96.544, 179.450 96.160, 180 96.500 C 180.628 96.888, 181 94.696, 181 90.616 C 181 80.467, 177.189 75.437, 169 74.781 L 165.500 74.500 164.943 66.500 C 164.637 62.100, 164.020 57.696, 163.572 56.713 C 162.304 53.931, 157.584 52, 152.050 52 L 147 52 147 47.900 C 147 44.571, 146.361 43.161, 143.600 40.400 C 140.363 37.163, 139.854 37, 133.004 37 C 125.602 37, 120.896 38.699, 119.300 41.947 C 118.880 42.801, 118.303 50.475, 118.018 59 L 117.500 74.500 90 74.500 L 62.500 74.500 61.982 59 C 61.697 50.475, 61.120 42.801, 60.700 41.947 C 59.104 38.699, 54.398 37, 46.996 37 C 40.146 37, 39.637 37.163, 36.400 40.400 M 40.200 44.200 C 38.473 45.927, 38.473 134.073, 40.200 135.800 C 41.766 137.366, 53.234 137.366, 54.800 135.800 C 56.527 134.073, 56.527 45.927, 54.800 44.200 C 54.129 43.529, 50.911 43, 47.500 43 C 44.089 43, 40.871 43.529, 40.200 44.200 M 125.200 44.200 C 123.473 45.927, 123.473 134.073, 125.200 135.800 C 126.766 137.366, 138.234 137.366, 139.800 135.800 C 141.527 134.073, 141.527 45.927, 139.800 44.200 C 139.129 43.529, 135.911 43, 132.500 43 C 129.089 43, 125.871 43.529, 125.200 44.200 M 147 88.500 L 147 119 151.066 119 C 159.405 119, 159 120.548, 159 88.665 C 159 68.014, 158.677 60.077, 157.800 59.200 C 157.140 58.540, 154.440 58, 151.800 58 L 147 58 147 88.500 M 22.750 62.080 C 21.149 63.013, 21 65.500, 21 91.350 C 21 111.989, 21.323 119.923, 22.200 120.800 C 22.860 121.460, 25.560 122, 28.200 122 L 33 122 33 91.500 L 33 61 28.750 61.030 C 26.413 61.047, 23.712 61.519, 22.750 62.080 M 62.682 80.651 C 62.307 81.026, 62 85.083, 62 89.667 L 62 98 90.039 98 L 118.078 98 117.789 89.250 L 117.500 80.500 90.432 80.234 C 75.545 80.088, 63.058 80.276, 62.682 80.651 M 165 89.500 L 165 98 167.929 98 C 172.435 98, 174 95.713, 174 89.129 C 174 82.547, 172.915 81, 168.300 81 L 165 81 165 89.500 M 7.571 83.571 C 5.665 85.478, 5.391 95.991, 7.200 97.800 C 7.860 98.460, 9.885 99, 11.700 99 L 15 99 15 90.500 L 15 82 12.071 82 C 10.461 82, 8.436 82.707, 7.571 83.571 M 0.336 91 C 0.336 95.125, 0.513 96.813, 0.728 94.750 C 0.944 92.688, 0.944 89.313, 0.728 87.250 C 0.513 85.188, 0.336 86.875, 0.336 91" stroke="none" fill="#0b0d11" fill-rule="evenodd"/></svg>